<?xml version="1.0" encoding="iso-8859-1"?>
<!-- Generator: Adobe Illustrator 19.0.0, SVG Export Plug-In . SVG Version: 6.00 Build 0)  -->
<svg version="1.1" id="Layer_1" xmlns="http://www.w3.org/2000/svg" xmlns:xlink="http://www.w3.org/1999/xlink" x="0px" y="0px"
	 viewBox="0 0 512 512" style="enable-background:new 0 0 512 512;" xml:space="preserve">
<g>
	<g>
		<g>
			<path d="M213.338,392.533c-4.71,0-8.533,3.823-8.533,8.533v17.067c0,4.71,3.823,8.533,8.533,8.533
				c4.71,0,8.533-3.823,8.533-8.533v-17.067C221.871,396.356,218.048,392.533,213.338,392.533z"/>
			<path d="M298.671,426.667c4.719,0,8.533-3.823,8.533-8.533v-17.067c0-4.71-3.814-8.533-8.533-8.533s-8.533,3.823-8.533,8.533
				v17.067C290.138,422.844,293.952,426.667,298.671,426.667z"/>
			<path d="M504.23,272.666c-44.22-3.994-77.559-40.516-77.559-84.932c0-20.446,7.159-39.62,20.258-55.006
				c23.117,34.449,38.647,72.585,44.902,111.002c0.683,4.19,4.309,7.159,8.414,7.159c0.452,0,0.913-0.034,1.374-0.111
				c4.659-0.751,7.808-5.137,7.057-9.788c-7.185-44.211-25.771-88.055-53.743-126.805c-0.008-0.017-0.026-0.026-0.043-0.043
				c-0.017-0.026-0.017-0.06-0.043-0.085C436.732,89.958,349.905,0,256.004,0C148.237,0,58.347,113.408,57.502,114.551
				c-2.543,3.473-2.099,8.294,1.024,11.247c17.289,16.341,26.812,38.34,26.812,61.935c0,41.114-28.587,75.401-67.9,83.456
				c1.741-37.956,12.809-76.988,32.495-113.545c2.236-4.147,0.683-9.327-3.465-11.563c-4.156-2.227-9.318-0.683-11.563,3.473
				C12.164,191.787,0.098,237.286,0.013,281.148c0,0.068,0.034,0.128,0.034,0.196c0,0.085-0.043,0.171-0.043,0.256
				c0,55.398,21.623,92.723,72.303,124.783c3.985,2.526,9.259,1.34,11.776-2.645c2.517-3.985,1.331-9.259-2.654-11.776
				c-43.383-27.443-62.396-57.651-64.205-103.313c49.084-8.218,85.18-50.287,85.18-100.915c0-25.728-9.412-49.86-26.667-68.753
				C98.94,91.153,175.347,17.067,256.004,17.067c79.616,0,156.894,73.737,180.574,101.53
				c-17.451,18.935-26.974,43.196-26.974,69.137c0,50.637,36.096,92.715,85.197,100.915c-1.741,45.568-20.796,75.904-64.478,103.458
				c-3.994,2.517-5.188,7.791-2.671,11.776c1.63,2.569,4.395,3.977,7.228,3.977c1.562,0,3.132-0.427,4.54-1.314
				c50.876-32.094,72.585-69.461,72.576-125.38C511.996,276.745,508.625,273.067,504.23,272.666z"/>
			<path d="M358.404,170.667c0-56.465-45.935-102.4-102.4-102.4s-102.4,45.935-102.4,102.4c0,56.457,45.935,102.4,102.4,102.4
				S358.404,227.123,358.404,170.667z M170.671,170.667c0-47.053,38.281-85.333,85.333-85.333s85.333,38.281,85.333,85.333
				S303.057,256,256.004,256S170.671,217.719,170.671,170.667z"/>
			<path d="M405.807,376.9c-2.176-1.459-54.451-35.567-149.803-35.567S108.386,375.441,106.202,376.9
				c-2.372,1.579-3.797,4.241-3.797,7.1v51.2c0,28.681,19.951,76.8,153.6,76.8c133.641,0,153.6-48.119,153.6-76.8V384
				C409.604,381.141,408.179,378.479,405.807,376.9z M392.538,435.2c0,37.965-49.766,59.733-136.533,59.733
				S119.471,473.165,119.471,435.2v-46.362c13.193-7.398,60.407-30.438,136.533-30.438c75.802,0,123.281,23.074,136.533,30.455
				V435.2z"/>
		</g>
	</g>
</g>
<g>
</g>
<g>
</g>
<g>
</g>
<g>
</g>
<g>
</g>
<g>
</g>
<g>
</g>
<g>
</g>
<g>
</g>
<g>
</g>
<g>
</g>
<g>
</g>
<g>
</g>
<g>
</g>
<g>
</g>
</svg>
